<?xml version="1.0" ?><svg viewBox="0 0 512 512" xmlns="http://www.w3.org/2000/svg"><g id="Biceps"><path d="M376.7809,287.8908a105.6316,105.6316,0,0,1,4.9307,9.7747,12.6156,12.6156,0,0,1-7.9916,17.085,12.8146,12.8146,0,0,1-15.4685-7.14c-26.3737-59.7889-108.8917-73.8287-153.2552-25.4984a92.6432,92.6432,0,0,0-24.8194,52.6135,12.8591,12.8591,0,0,1-12.667,11.4747,12.685,12.685,0,0,1-12.6649-14.0252,119.248,119.248,0,0,1,50.1513-83.47V193.2006h68a34,34,0,0,0,34-34V96.2159a29.84,29.84,0,0,0-14.875-25.7553l-22.186-12.8351A42.19,42.19,0,0,0,219.02,64.3409l-88.9947,88.9947a76.2219,76.2219,0,0,0-17.6807,27.54l-56.8645,153.34a55.2822,55.2822,0,0,0,33.5746,71.4c44.4548,15.47,125.375,34.085,183.9412,34.085,28.9116-1.9486,56.9309-13.2579,85.7636-3.7374a324.569,324.569,0,0,0,34.6807,7.1377l-4.59-13.8551a12.8111,12.8111,0,0,1,8.5544-16.3886c6.6538-2,13.6216,2.3474,15.8231,8.9373l12.7685,38.2213h21.2913a12.7087,12.7087,0,0,0,12.7087-12.7087V291.1383a12.7871,12.7871,0,0,0-13.3519-12.7047A342.1659,342.1659,0,0,0,376.7809,287.8908Zm-58.0556,75.5651a226.9552,226.9552,0,0,1-85.34,7.48c-16.5185-2.0669-14.0553-26.82,2.6355-25.33a203.5,203.5,0,0,0,75.6492-6.63C327.9018,334.6,334.8,358.5527,318.7253,363.4559Z"/></g></svg>