<?xml version="1.0" encoding="iso-8859-1"?>
<!-- Generator: Adobe Illustrator 16.0.0, SVG Export Plug-In . SVG Version: 6.00 Build 0)  -->
<!DOCTYPE svg PUBLIC "-//W3C//DTD SVG 1.1//EN" "http://www.w3.org/Graphics/SVG/1.1/DTD/svg11.dtd">
<svg version="1.1" id="Capa_1" xmlns="http://www.w3.org/2000/svg" xmlns:xlink="http://www.w3.org/1999/xlink" x="0px" y="0px"
	 width="485.213px" height="485.212px" viewBox="0 0 485.213 485.212" style="enable-background:new 0 0 485.213 485.212;"
	 xml:space="preserve">
<g>
	<path d="M485.212,272.93v-60.648h-48.034c-2.193-14.125-5.801-27.75-10.842-40.72l41.528-23.991l-30.332-52.535l-41.462,23.956
		c-8.882-10.958-18.832-20.967-29.846-29.823l23.979-41.488l-52.533-30.327l-23.988,41.551
		c-12.971-5.036-26.594-8.678-40.749-10.841V0h-60.65v48.068c-14.097,2.159-27.72,5.834-40.695,10.837l-23.984-41.551l-52.54,30.327
		l23.928,41.493c-10.956,8.853-20.964,18.864-29.79,29.818L47.682,95.036l-30.327,52.507l41.579,24.019
		c-5.031,12.97-8.679,26.595-10.837,40.72H0.001v60.648h48.097c2.158,14.128,5.806,27.751,10.837,40.726l-41.579,23.988
		l30.327,52.533l41.521-23.956c8.826,10.958,18.834,20.964,29.79,29.822l-23.928,41.49l52.54,30.322l23.988-41.547
		c12.97,5.036,26.593,8.648,40.69,10.838v48.065h60.65v-48.065c14.155-2.189,27.783-5.802,40.749-10.838l23.988,41.547
		l52.542-30.322l-23.988-41.49c11.014-8.858,20.964-18.864,29.854-29.855l41.458,23.961l30.327-52.505l-41.528-23.988
		c5.041-12.975,8.648-26.598,10.847-40.726H485.212L485.212,272.93z M242.607,379.074c-75.341,0-136.468-61.124-136.468-136.468
		c0-75.368,61.127-136.465,136.468-136.465s136.47,61.097,136.47,136.465C379.077,317.95,317.948,379.074,242.607,379.074z"/>
</g>
<g>
</g>
<g>
</g>
<g>
</g>
<g>
</g>
<g>
</g>
<g>
</g>
<g>
</g>
<g>
</g>
<g>
</g>
<g>
</g>
<g>
</g>
<g>
</g>
<g>
</g>
<g>
</g>
<g>
</g>
</svg>
