<?xml version="1.0" encoding="iso-8859-1"?>
<!-- Generator: Adobe Illustrator 19.1.0, SVG Export Plug-In . SVG Version: 6.00 Build 0)  -->
<svg version="1.1" id="Capa_1" xmlns="http://www.w3.org/2000/svg" xmlns:xlink="http://www.w3.org/1999/xlink" x="0px" y="0px"
	 viewBox="0 0 289.361 289.361" style="enable-background:new 0 0 289.361 289.361;" xml:space="preserve">
<g>
	<path d="M247.296,104.653l-2.414-3.622c-13.883-21.127-30.785-45.875-53.119-65.191c-16.901-14.487-43.461-32.596-77.264-35.614
		c-9.658-0.604-18.109,0-25.352,1.811c-19.919,6.036-35.01,24.749-35.614,45.272C52.93,68.436,67.417,88.355,87.336,93.788
		c19.919,5.433,43.461-5.433,51.912-24.145c4.225-9.054,6.036-10.262,7.244-10.262c0.604,0,1.811,1.811,1.811,2.414
		c13.28,18.109,21.73,39.839,24.145,62.173c-13.28-6.64-31.992-10.865-51.912-7.244c-15.091,2.414-35.614,10.865-50.101,34.407
		c-10.865-7.244-22.938-14.487-36.217-15.091c-1.811,0-3.018,0.604-4.225,1.811c-1.207,1.207-1.811,3.018-1.811,4.225v141.248
		c0,3.018,2.414,6.036,6.036,6.036h0.604c24.145,0,46.479-16.298,55.533-38.028c9.054,7.244,21.127,12.072,35.01,12.676
		c36.217,2.414,77.264-16.901,97.787-36.821c11.469-10.865,38.028-42.254,38.028-89.94
		C260.576,125.176,253.332,114.311,247.296,104.653z M214.097,218.737c-18.712,18.109-57.344,35.614-88.733,33.199
		c-15.091-1.207-26.559-6.64-33.803-16.298c-1.207-1.811-3.622-3.018-6.036-2.414c-2.414,0.604-4.225,2.414-4.225,4.829
		c-3.622,19.316-21.127,35.614-41.65,38.028V146.906c10.262,2.414,19.919,9.658,28.37,15.694c1.207,1.207,3.018,1.207,4.829,1.207
		c1.811-0.604,3.018-1.207,4.225-3.018c12.676-23.541,31.388-31.388,45.272-33.803c21.127-3.622,42.857,3.018,52.515,12.072
		c1.811,1.811,4.225,1.811,6.64,1.207c2.414-1.207,3.622-3.018,3.622-5.433c-0.604-28.974-10.262-57.344-27.163-80.885
		c-1.811-2.414-3.622-4.829-6.64-6.036c-12.676-5.433-19.92,10.262-22.938,16.298c-6.036,13.883-23.541,21.127-38.028,17.505
		C75.868,77.49,65.002,62.399,65.606,47.309c0.604-15.091,12.072-29.577,26.559-33.803c6.036-1.811,12.676-2.414,20.523-1.207
		c30.181,3.018,54.93,19.316,70.624,32.596c21.127,18.712,38.028,42.254,50.704,62.777l2.414,3.622
		c5.433,8.451,11.469,17.505,11.469,26.559C248.503,180.709,224.359,209.08,214.097,218.737z"/>
</g>
<g>
</g>
<g>
</g>
<g>
</g>
<g>
</g>
<g>
</g>
<g>
</g>
<g>
</g>
<g>
</g>
<g>
</g>
<g>
</g>
<g>
</g>
<g>
</g>
<g>
</g>
<g>
</g>
<g>
</g>
</svg>
