<?xml version="1.0" encoding="UTF-8" standalone="no"?>
<!-- Created with Inkscape (http://www.inkscape.org/) -->

<svg
   width="64pt"
   height="64pt"
   viewBox="0 0 22.577778 22.577778"
   version="1.1"
   id="svg831"
   inkscape:version="1.1.1 (3bf5ae0d25, 2021-09-20)"
   sodipodi:docname="Export.svg"
   inkscape:export-filename="C:\Users\User\Desktop\CARLOS PROJECT\5. MAY 1\Done\Flat\17 - Water Bottle.png"
   inkscape:export-xdpi="576"
   inkscape:export-ydpi="576"
   xmlns:inkscape="http://www.inkscape.org/namespaces/inkscape"
   xmlns:sodipodi="http://sodipodi.sourceforge.net/DTD/sodipodi-0.dtd"
   xmlns="http://www.w3.org/2000/svg"
   xmlns:svg="http://www.w3.org/2000/svg"
   xmlns:rdf="http://www.w3.org/1999/02/22-rdf-syntax-ns#"
   xmlns:cc="http://creativecommons.org/ns#"
   xmlns:dc="http://purl.org/dc/elements/1.1/">
  <defs
     id="defs825">
    <pattern
       id="EMFhbasepattern"
       patternUnits="userSpaceOnUse"
       width="6"
       height="6"
       x="0"
       y="0" />
    <pattern
       id="EMFhbasepattern-9"
       patternUnits="userSpaceOnUse"
       width="6"
       height="6"
       x="0"
       y="0" />
    <pattern
       id="EMFhbasepattern-0"
       patternUnits="userSpaceOnUse"
       width="6"
       height="6"
       x="0"
       y="0" />
    <pattern
       id="EMFhbasepattern-7"
       patternUnits="userSpaceOnUse"
       width="6"
       height="6"
       x="0"
       y="0" />
    <pattern
       id="EMFhbasepattern-2"
       patternUnits="userSpaceOnUse"
       width="6"
       height="6"
       x="0"
       y="0" />
    <pattern
       id="EMFhbasepattern-98"
       patternUnits="userSpaceOnUse"
       width="6"
       height="6"
       x="0"
       y="0" />
    <pattern
       id="EMFhbasepattern-6"
       patternUnits="userSpaceOnUse"
       width="6"
       height="6"
       x="0"
       y="0" />
    <pattern
       id="EMFhbasepattern-01"
       patternUnits="userSpaceOnUse"
       width="6"
       height="6"
       x="0"
       y="0" />
    <pattern
       id="EMFhbasepattern-07"
       patternUnits="userSpaceOnUse"
       width="6"
       height="6"
       x="0"
       y="0" />
    <pattern
       id="EMFhbasepattern-8"
       patternUnits="userSpaceOnUse"
       width="6"
       height="6"
       x="0"
       y="0" />
    <pattern
       id="EMFhbasepattern-4"
       patternUnits="userSpaceOnUse"
       width="6"
       height="6"
       x="0"
       y="0" />
    <pattern
       id="EMFhbasepattern-40"
       patternUnits="userSpaceOnUse"
       width="6"
       height="6"
       x="0"
       y="0" />
    <pattern
       id="EMFhbasepattern-08"
       patternUnits="userSpaceOnUse"
       width="6"
       height="6"
       x="0"
       y="0" />
    <pattern
       id="EMFhbasepattern-04"
       patternUnits="userSpaceOnUse"
       width="6"
       height="6"
       x="0"
       y="0" />
    <pattern
       id="EMFhbasepattern-014"
       patternUnits="userSpaceOnUse"
       width="6"
       height="6"
       x="0"
       y="0" />
    <pattern
       id="EMFhbasepattern-27"
       patternUnits="userSpaceOnUse"
       width="6"
       height="6"
       x="0"
       y="0" />
    <pattern
       id="EMFhbasepattern-09"
       patternUnits="userSpaceOnUse"
       width="6"
       height="6"
       x="0"
       y="0" />
    <pattern
       id="EMFhbasepattern-5"
       patternUnits="userSpaceOnUse"
       width="6"
       height="6"
       x="0"
       y="0" />
    <pattern
       id="EMFhbasepattern-018"
       patternUnits="userSpaceOnUse"
       width="6"
       height="6"
       x="0"
       y="0" />
  </defs>
  <sodipodi:namedview
     id="base"
     pagecolor="#ffffff"
     bordercolor="#666666"
     borderopacity="1.0"
     inkscape:pageopacity="0.0"
     inkscape:pageshadow="2"
     inkscape:zoom="6.5876941"
     inkscape:cx="28.082664"
     inkscape:cy="49.258511"
     inkscape:document-units="pt"
     inkscape:current-layer="layer1"
     showgrid="false"
     units="pt"
     inkscape:window-width="1920"
     inkscape:window-height="1001"
     inkscape:window-x="-9"
     inkscape:window-y="-9"
     inkscape:window-maximized="1"
     inkscape:pagecheckerboard="true"
     inkscape:showpageshadow="false"
     inkscape:object-paths="true"
     inkscape:snap-intersection-paths="true"
     inkscape:snap-smooth-nodes="true"
     inkscape:snap-midpoints="true"
     showguides="true"
     inkscape:snap-bbox="true"
     inkscape:bbox-nodes="true"
     inkscape:snap-nodes="false"
     inkscape:snap-global="true">
    <inkscape:grid
       type="xygrid"
       id="grid1378" />
    <sodipodi:guide
       position="0.97013831,21.607643"
       orientation="78.000048,0"
       id="guide1380"
       inkscape:locked="false" />
    <sodipodi:guide
       position="0.97013831,0.97013129"
       orientation="0,78.000005"
       id="guide1382"
       inkscape:locked="false" />
    <sodipodi:guide
       position="21.607639,0.97013129"
       orientation="-78.000048,0"
       id="guide1384"
       inkscape:locked="false" />
    <sodipodi:guide
       position="21.607639,21.607643"
       orientation="0,-78.000005"
       id="guide1386"
       inkscape:locked="false" />
  </sodipodi:namedview>
  <metadata
     id="metadata828">
    <rdf:RDF>
      <cc:Work
         rdf:about="">
        <dc:format>image/svg+xml</dc:format>
        <dc:type
           rdf:resource="http://purl.org/dc/dcmitype/StillImage" />
      </cc:Work>
    </rdf:RDF>
  </metadata>
  <g
     inkscape:label="Icon"
     inkscape:groupmode="layer"
     id="layer1"
     transform="translate(0,-274.42223)">
    <g
       id="g615067"
       style="display:inline;stroke-width:0.794878"
       transform="matrix(1.258055,0,0,1.258055,0.63719229,-150.5084)">
      <path
         style="color:#000000;fill:#c8dae5;fill-opacity:1;stroke-width:0.794878;stroke-linecap:round;stroke-linejoin:round;-inkscape-stroke:none"
         d="m 5.7539062,345.41797 c -0.4352451,0 -0.7929687,0.35968 -0.7929687,0.79492 0,0.43524 0.3577236,0.79297 0.7929687,0.79297 h 6.0859378 c 0.435245,0 0.794922,-0.35773 0.794922,-0.79297 0,-0.43524 -0.359677,-0.79492 -0.794922,-0.79492 z"
         id="path359878" />
      <path
         id="path410333"
         style="color:#000000;fill:#b0c3d3;fill-opacity:1;stroke-width:0.794878;stroke-linecap:round;stroke-linejoin:round;-inkscape-stroke:none"
         d="m 5.7536542,345.41797 c -0.3549449,0 -0.6582278,0.23947 -0.7580935,0.56379 0.072674,-0.0223 0.1493597,-0.0346 0.2289268,-0.0346 h 6.0859335 c 0.435245,0 0.7953,0.36005 0.7953,0.7953 0,0.0796 -0.01232,0.15625 -0.03462,0.22892 0.324319,-0.0999 0.56379,-0.40315 0.56379,-0.75809 0,-0.43524 -0.360055,-0.7953 -0.7953,-0.7953 z" />
      <path
         style="color:#000000;fill:#c8dae5;fill-opacity:1;stroke-width:0.794878;stroke-linecap:round;stroke-linejoin:round;-inkscape-stroke:none"
         d="m 5.7539062,343.03711 c -0.4352451,0 -0.7929687,0.35968 -0.7929687,0.79492 0,0.43524 0.3577236,0.79297 0.7929687,0.79297 h 6.0859378 c 0.435245,0 0.794922,-0.35773 0.794922,-0.79297 0,-0.43524 -0.359677,-0.79492 -0.794922,-0.79492 z"
         id="path359766" />
      <path
         id="path409039"
         style="color:#000000;fill:#b0c3d3;fill-opacity:1;stroke-width:3.00426;stroke-linecap:round;stroke-linejoin:round;-inkscape-stroke:none"
         d="m 21.746094,237.99805 c -1.341524,0 -2.48779,0.90509 -2.865235,2.13086 0.274673,-0.0843 0.564509,-0.13086 0.865235,-0.13086 h 23.001953 c 1.64502,0 3.005859,1.36085 3.005859,3.00586 0,0.30072 -0.04656,0.59056 -0.130859,0.86523 1.225772,-0.37745 2.130859,-1.52373 2.130859,-2.86523 0,-1.64501 -1.360839,-3.00586 -3.005859,-3.00586 z"
         transform="matrix(0.26458334,0,0,0.26458334,0,280.06666)" />
      <path
         style="color:#000000;fill:#c8dae5;fill-opacity:1;stroke-width:0.794878;stroke-linecap:round;stroke-linejoin:round;-inkscape-stroke:none"
         d="m 7.3417969,347.80078 a 0.26460996,0.26460996 0 0 0 -0.2636719,0.26367 v 1.0586 a 0.26460996,0.26460996 0 0 0 0.2636719,0.26367 h 2.9101561 a 0.26460996,0.26460996 0 0 0 0.265625,-0.26367 v -1.0586 a 0.26460996,0.26460996 0 0 0 -0.265625,-0.26367 z"
         id="path360102" />
      <path
         id="path410415"
         style="color:#000000;fill:#b0c3d3;fill-opacity:1;stroke-width:3.00426;stroke-linecap:round;stroke-linejoin:round;-inkscape-stroke:none"
         d="M 27.748047,256.00391 A 1.0001006,1.0001006 0 0 0 26.751953,257 v 1.00391 h 13 V 257 a 1.0001006,1.0001006 0 0 0 -1.003906,-0.99609 z"
         transform="matrix(0.26458334,0,0,0.26458334,0,280.06666)" />
      <path
         style="color:#000000;fill:#c8dae5;fill-opacity:1;stroke-width:0.794878;stroke-linecap:round;stroke-linejoin:round;-inkscape-stroke:none"
         d="m 5.7539062,350.18164 c -0.4352451,0 -0.7929687,0.35773 -0.7929687,0.79297 0,0.43524 0.3577236,0.79492 0.7929687,0.79492 h 6.0859378 c 0.435245,0 0.794922,-0.35968 0.794922,-0.79492 0,-0.43524 -0.359677,-0.79297 -0.794922,-0.79297 z"
         id="path360214" />
      <path
         id="path410420"
         style="color:#000000;fill:#b0c3d3;fill-opacity:1;stroke-width:0.794878;stroke-linecap:round;stroke-linejoin:round;-inkscape-stroke:none"
         d="m 5.7536542,350.18163 c -0.3549449,0 -0.6582278,0.23947 -0.7580935,0.56379 0.072674,-0.0223 0.1493597,-0.0346 0.2289268,-0.0346 h 6.0859335 c 0.435245,0 0.7953,0.36005 0.7953,0.7953 0,0.0796 -0.01232,0.15625 -0.03462,0.22892 0.324319,-0.0999 0.56379,-0.40315 0.56379,-0.75809 0,-0.43524 -0.360055,-0.7953 -0.7953,-0.7953 z" />
      <path
         style="color:#000000;fill:#3a4d5c;fill-opacity:1;stroke-width:0.794878;stroke-linecap:round;stroke-linejoin:round;-inkscape-stroke:none"
         d="m 4.5644531,347.00586 c -1.4581181,0 -2.6464822,1.18836 -2.6464844,2.64648 v 5.02735 a 0.26460945,0.26460945 0 0 0 0.2656251,0.26367 h 1.09375 a 0.26460945,0.26460945 0 0 0 0.2636718,-0.26367 v -5.02735 c 1.6e-6,-0.5876 0.4709842,-1.05859 1.0585938,-1.05859 h 1.6835937 a 0.26460945,0.26460945 0 0 0 0.265625,-0.26367 v -1.0586 a 0.26460945,0.26460945 0 0 0 -0.265625,-0.26562 z"
         id="path360326" />
      <path
         id="path410422"
         style="color:#000000;fill:#143441;fill-opacity:1;stroke-width:0.794878;stroke-linecap:round;stroke-linejoin:round;-inkscape-stroke:none"
         d="M 6.2833375,347.00573 H 4.5645793 c -1.4581181,0 -2.6468648,1.18875 -2.6468669,2.64686 v 0.52917 c 2.1e-6,-1.45812 1.1887488,-2.64686 2.6468669,-2.64686 h 1.7187582 z"
         sodipodi:nodetypes="csscscc" />
      <path
         style="color:#000000;fill:#3a4d5c;fill-opacity:1;stroke-width:0.794878;stroke-linecap:round;stroke-linejoin:round;-inkscape-stroke:none"
         d="m 11.310547,347.00586 a 0.26460945,0.26460945 0 0 0 -0.263672,0.26562 v 1.0586 a 0.26460945,0.26460945 0 0 0 0.263672,0.26367 h 1.683594 c 0.587609,0 1.058592,0.47099 1.058593,1.05859 v 5.02735 a 0.26460945,0.26460945 0 0 0 0.265625,0.26367 h 1.09375 a 0.26460945,0.26460945 0 0 0 0.263672,-0.26367 v -5.02735 c -2e-6,-1.45812 -1.186413,-2.64648 -2.644531,-2.64648 z"
         id="path359990" />
      <path
         id="path412028"
         style="color:#000000;fill:#143441;fill-opacity:1;stroke-width:3.00426;stroke-linecap:round;stroke-linejoin:round;-inkscape-stroke:none"
         d="m 42.748047,252.99805 a 1.0000987,1.0000987 0 0 0 -0.996094,1.0039 v 0.9961 h 5.5 c 5.510997,0 9.994133,4.4929 9.994141,10.0039 v 17.9961 H 58.25 a 1.0000987,1.0000987 0 0 0 0.996094,-0.9961 v -19 c -8e-6,-5.511 -4.483144,-10.0039 -9.994141,-10.0039 z"
         transform="matrix(0.26458334,0,0,0.26458334,0,280.06666)" />
      <path
         style="color:#000000;fill:#b0c3d3;fill-opacity:1;stroke-width:3.00426;stroke-linecap:round;stroke-linejoin:round;-inkscape-stroke:none"
         d="m 40.748047,220.99805 c -1.644998,0 -2.996094,1.3589 -2.996094,3.0039 V 277.5 a 1.0001006,1.0001006 0 0 0 0.996094,1.00391 h 4 A 1.0001006,1.0001006 0 0 0 43.751953,277.5 v -53.49805 c 0,-1.645 -1.358908,-3.0039 -3.003906,-3.0039 z"
         transform="matrix(0.26458334,0,0,0.26458334,0,280.06666)"
         id="path409017" />
      <path
         id="path409037"
         style="color:#000000;fill:#97abba;fill-opacity:1;stroke-width:0.794878;stroke-linecap:round;stroke-linejoin:round;-inkscape-stroke:none"
         d="m 9.9885368,340.91411 v 5.3e-4 1.60197 c 0.1779592,-5e-4 0.3559022,-0.001 0.5338372,-0.002 0.289671,-10e-4 0.524496,0.23285 0.524496,0.52252 v 10.7172 h 0.26355 c 0.146942,5.3e-4 0.266198,-0.11868 0.265617,-0.26562 0,-4.55666 0,-8.50492 0,-12.57133 -0.529161,-5.3e-4 -1.058447,-0.002 -1.5875002,-0.004 z"
         sodipodi:nodetypes="cccsscccccc" />
      <path
         style="color:#000000;fill:#b0c3d3;fill-opacity:1;stroke-width:3.00426;stroke-linecap:round;stroke-linejoin:round;-inkscape-stroke:none"
         d="m 25.748047,220.99805 c -1.644998,0 -2.996094,1.3589 -2.996094,3.0039 V 277.5 c -0.0021,0.55227 0.443829,1.0017 0.996094,1.00391 h 4 c 0.555318,0.002 1.006025,-0.44859 1.003906,-1.00391 v -53.49805 c 0,-1.645 -1.358909,-3.0039 -3.003906,-3.0039 z"
         transform="matrix(0.26458334,0,0,0.26458334,0,280.06666)"
         id="path359430"
         sodipodi:nodetypes="ssccccss" />
      <path
         id="path404098"
         style="color:#000000;fill:#97abba;fill-opacity:1;stroke-width:0.794878;stroke-linecap:round;stroke-linejoin:round;-inkscape-stroke:none"
         d="m 6.0197877,340.91411 v 5.3e-4 1.60197 c 0.1779597,-5e-4 0.355902,-0.001 0.5338375,-0.002 0.2896705,-10e-4 0.5244958,0.23285 0.5244958,0.52252 v 10.7172 h 0.2635498 c 0.1469425,5.3e-4 0.2661982,-0.11868 0.2656169,-0.26562 0,-4.55666 0,-8.50492 0,-12.57133 -0.5291603,-5.3e-4 -1.0584471,-0.002 -1.5875,-0.004 z"
         sodipodi:nodetypes="cccsscccccc" />
      <path
         id="path361782"
         style="color:#000000;fill:#97abba;fill-opacity:1;stroke-width:3.00426;stroke-linecap:round;stroke-linejoin:round;-inkscape-stroke:none"
         d="m 22.882812,223.12891 c 0.274629,-0.0843 0.564568,-0.13086 0.865235,-0.13086 1.644997,0 3.003906,1.3589 3.003906,3.0039 v 1.98633 c 0.666615,0.001 1.333342,0.001 2,0.002 V 224.002 c 0,-1.645 -1.358909,-3.0039 -2.852168,-3.00392 -1.493258,-3e-5 -2.639535,0.90504 -3.016973,2.13083 z"
         transform="matrix(0.26458334,0,0,0.26458334,0,280.06666)"
         sodipodi:nodetypes="cssccscc" />
      <path
         style="color:#000000;fill:#c8dae5;fill-opacity:1;stroke-width:0.794878;stroke-linecap:round;stroke-linejoin:round;-inkscape-stroke:none"
         d="m 5.7558594,340.38477 c -0.5090813,-10e-4 -0.9982448,0.20198 -1.3574219,0.5625 l -1.0136719,1.01757 c -0.1038611,0.10343 -0.1038611,0.27157 0,0.375 l 0.7519531,0.7461 c 0.1037506,0.10201 0.270396,0.10112 0.3730469,-0.002 l 0.9804688,-0.98437 c 0.070334,-0.0706 0.1660173,-0.11106 0.265625,-0.11133 2.0285578,-0.007 4.0555109,-0.0148 6.0820316,0 6.67e-4,0 0.0013,0 0.002,0 0.09961,2.7e-4 0.19529,0.0407 0.265625,0.11133 l 0.978515,0.98437 c 0.102871,0.10441 0.271021,0.10531 0.375,0.002 l 0.75,-0.7461 c 0.104415,-0.10287 0.105312,-0.27102 0.002,-0.375 l -1.013672,-1.01757 c -0.359178,-0.36052 -0.848341,-0.5635 -1.357422,-0.5625 z"
         id="path359398"
         sodipodi:nodetypes="ccccccccsccccccccc" />
      <path
         style="color:#000000;fill:#394d5c;fill-opacity:1;stroke-width:0.794878;stroke-linecap:round;stroke-linejoin:round;-inkscape-stroke:none"
         d="m 2.9414063,342.03711 -1.3417969,1.3418 c -0.2472437,0.24723 -0.2472438,0.65706 0,0.90429 l 0.5917969,0.59375 c 0.2472383,0.24723 0.6570586,0.24723 0.9042968,0 L 4.4375,343.53516 c 0.2472454,-0.24724 0.2472363,-0.65707 0,-0.9043 l -0.59375,-0.59375 c -0.2472388,-0.24724 -0.6551045,-0.24724 -0.9023437,0 z"
         id="path359286" />
      <path
         style="color:#000000;fill:#3a4d5c;fill-opacity:1;stroke-width:0.794878;stroke-linecap:round;stroke-linejoin:round;-inkscape-stroke:none"
         d="m 6.2832031,353.22461 c -0.3621961,0 -0.6601562,0.29796 -0.6601562,0.66016 v 0.79492 a 0.26461046,0.26461046 0 0 0 0.2636718,0.26367 h 1.8515625 a 0.26461046,0.26461046 0 0 0 0.2656251,-0.26367 v -0.79492 c 0,-0.3622 -0.2999133,-0.66016 -0.6621094,-0.66016 z"
         id="path361398" />
      <path
         style="color:#000000;fill:#3a4d5c;fill-opacity:1;stroke-width:0.794878;stroke-linecap:round;stroke-linejoin:round;-inkscape-stroke:none"
         d="m 13.75,342.03711 -0.591797,0.59375 c -0.247233,0.24723 -0.247246,0.65706 0,0.9043 L 14.5,344.87695 c 0.247239,0.24723 0.655105,0.24723 0.902344,0 l 0.59375,-0.59375 c 0.247243,-0.24723 0.247243,-0.65706 0,-0.90429 l -1.341797,-1.3418 c -0.24724,-0.24724 -0.657058,-0.24724 -0.904297,0 z"
         id="path359654" />
      <path
         style="color:#000000;fill:#3a4d5c;fill-opacity:1;stroke-width:0.794878;stroke-linecap:round;stroke-linejoin:round;-inkscape-stroke:none"
         d="m 10.251953,353.22461 c -0.3621961,0 -0.6601561,0.29796 -0.6601561,0.66016 v 0.79492 a 0.26461046,0.26461046 0 0 0 0.2636719,0.26367 h 1.8515622 a 0.26461046,0.26461046 0 0 0 0.265625,-0.26367 v -0.79492 c 0,-0.3622 -0.299913,-0.66016 -0.662109,-0.66016 z"
         id="path361590" />
      <path
         id="path364994"
         style="color:#000000;fill:#143441;fill-opacity:1;stroke-width:0.794878;stroke-linecap:round;stroke-linejoin:round;-inkscape-stroke:none"
         d="m 3.1279744,341.90832 c 0.067849,0.0306 0.1312004,0.0733 0.186552,0.12868 l 0.5937622,0.59376 c 0.2472363,0.24723 0.2472454,0.6571 0,0.90434 l -1.3415202,1.34203 c -0.055521,0.0555 -0.1193493,0.0986 -0.1875854,0.1292 0.2355612,0.10541 0.5251291,0.0624 0.716752,-0.1292 l 1.3415203,-1.34203 c 0.2472454,-0.24724 0.2472363,-0.65711 0,-0.90434 L 3.843693,342.037 c -0.2331935,-0.23319 -0.4840213,-0.22503 -0.7157186,-0.12868 z"
         sodipodi:nodetypes="ccscccccscc" />
      <path
         id="path377444"
         style="color:#000000;fill:#143441;fill-opacity:1;stroke-width:3.00426;stroke-linecap:round;stroke-linejoin:round;-inkscape-stroke:none"
         d="m 53.677734,233.51758 c -0.341529,0 -0.684043,0.0715 -1,0.21289 0.257902,0.1156 0.499141,0.27844 0.708985,0.48828 l 5.070312,5.07227 c 0.934462,0.93441 0.934462,2.48355 0,3.41796 l -2.24414,2.24414 c -0.209203,0.2092 -0.448643,0.37081 -0.705079,0.48633 0.889034,0.40065 1.979762,0.23896 2.705079,-0.48633 l 2.24414,-2.24414 c 0.934462,-0.93441 0.934462,-2.48355 0,-3.41796 l -5.070312,-5.07227 c -0.467225,-0.46723 -1.088143,-0.70117 -1.708985,-0.70117 z"
         transform="matrix(0.26458334,0,0,0.26458334,0,280.06666)" />
      <path
         id="path409013"
         style="color:#000000;fill:#97abba;fill-opacity:1;stroke-width:0.794878;stroke-linecap:round;stroke-linejoin:round;-inkscape-stroke:none"
         d="m 10.005849,339.10285 c 0.07266,-0.0223 0.149376,-0.0346 0.228927,-0.0346 0.435239,0 0.794784,0.35954 0.794784,0.79478 v 0.52555 c 0.176375,2.7e-4 0.35278,2.7e-4 0.529166,5.3e-4 v -1.05523 c 0,-0.43524 -0.359544,-0.79478 -0.754635,-0.7948 -0.395092,-2e-5 -0.698378,0.23945 -0.798242,0.56377 z"
         sodipodi:nodetypes="cssccscc" />
      <path
         id="path414469"
         style="color:#000000;fill:#143441;fill-opacity:1;stroke-width:0.794878;stroke-linecap:round;stroke-linejoin:round;-inkscape-stroke:none"
         d="m 6.8125042,353.75359 c 0.3621961,0 0.6624918,0.29822 0.6624918,0.66042 v 0.52917 h 0.2630331 c 0.1463212,8.4e-4 0.2655496,-0.11723 0.2661336,-0.26355 v -0.79478 c 0,-0.36221 -0.3002958,-0.66043 -0.6624919,-0.66043 l -1.0583333,5e-5 c -0.3211391,0 -0.6495728,0.54002 -0.6495728,0.54002 z"
         sodipodi:nodetypes="cscccscccc" />
      <path
         id="path415802"
         style="color:#000000;fill:#143441;fill-opacity:1;stroke-width:0.794878;stroke-linecap:round;stroke-linejoin:round;-inkscape-stroke:none"
         d="m 10.781254,353.75359 c 0.362196,0 0.662492,0.29822 0.662492,0.66042 v 0.52917 h 0.263033 c 0.146321,8.4e-4 0.26555,-0.11723 0.266134,-0.26355 v -0.79478 c 0,-0.36221 -0.300296,-0.66043 -0.662492,-0.66043 l -1.058333,5e-5 c -0.3211395,0 -0.6495731,0.54002 -0.6495731,0.54002 z"
         sodipodi:nodetypes="cscccscccc" />
      <path
         style="color:#000000;fill:#143441;fill-opacity:1;stroke-width:0.794878;stroke-linecap:round;stroke-linejoin:round;-inkscape-stroke:none"
         d="m 0.859375,354.41406 a 0.2645835,0.2645835 0 0 0 -0.26367188,0.26563 0.2645835,0.2645835 0 0 0 0.26367188,0.26367 h 15.214844 a 0.2645835,0.2645835 0 0 0 0.263672,-0.26367 0.2645835,0.2645835 0 0 0 -0.263672,-0.26563 z"
         id="path6812" />
    </g>
  </g>
</svg>
