<?xml version="1.0" encoding="UTF-8" standalone="no"?><!-- Generator: Gravit.io --><svg xmlns="http://www.w3.org/2000/svg" xmlns:xlink="http://www.w3.org/1999/xlink" style="isolation:isolate" viewBox="0 0 200 200" width="200pt" height="200pt"><defs><clipPath id="_clipPath_sHLf9e6lh93rguJjpgAHezQiOfh180FR"><rect width="200" height="200"/></clipPath></defs><g clip-path="url(#_clipPath_sHLf9e6lh93rguJjpgAHezQiOfh180FR)"><rect width="200" height="200" style="fill:rgb(220,252,52)"/><g filter="url(#S9zRvETOTVubyrrFOQnoEYXHTcUOlHfM)"><path d=" M 155.75 58.474 L 131.106 27.281 L 142.838 20 L 167.482 51.194 L 155.75 58.474 Z " fill="rgb(0,0,0)"/><path d=" M 142.26 74.594 L 129.938 58.997 L 71.277 95.401 L 83.599 110.997 L 71.867 118.278 L 39.008 76.686 L 50.74 69.406 L 63.062 85.003 L 121.723 48.599 L 109.401 33.002 L 121.133 25.722 L 153.992 67.313 L 142.26 74.594 Z " fill="rgb(0,0,0)"/><path d=" M 159.268 40.795 L 171 33.515 L 162.785 23.117 L 151.053 30.398 L 159.268 40.795 Z " fill="rgb(0,0,0)"/><path d=" M 61.894 116.72 L 37.249 85.525 L 25.517 92.806 L 50.162 124 L 61.894 116.72 Z " fill="rgb(0,0,0)"/><path d=" M 41.947 113.603 L 30.215 120.883 L 22 110.485 L 33.732 103.205 L 41.947 113.603 Z " fill="rgb(0,0,0)"/></g><defs><filter id="S9zRvETOTVubyrrFOQnoEYXHTcUOlHfM" x="-200%" y="-200%" width="400%" height="400%" filterUnits="objectBoundingBox" color-interpolation-filters="sRGB"><feGaussianBlur xmlns="http://www.w3.org/2000/svg" in="SourceGraphic" stdDeviation="2.146804531419514"/><feOffset xmlns="http://www.w3.org/2000/svg" dx="1" dy="1" result="pf_100_offsetBlur"/><feFlood xmlns="http://www.w3.org/2000/svg" flood-color="#000000" flood-opacity="0.1"/><feComposite xmlns="http://www.w3.org/2000/svg" in2="pf_100_offsetBlur" operator="in" result="pf_100_dropShadow"/><feBlend xmlns="http://www.w3.org/2000/svg" in="SourceGraphic" in2="pf_100_dropShadow" mode="normal"/></filter></defs><g clip-path="url(#_clipPath_GzDfx4uayTjGDsCW46rDrTtiCdTUs8Vi)"><text transform="matrix(1,0,0,1,46,169.96)" style="font-family:'Open Sans';font-weight:700;font-size:43px;font-style:normal;font-variant-ligatures:none;fill:#000000;stroke:none;">Wow</text></g><defs><clipPath id="_clipPath_GzDfx4uayTjGDsCW46rDrTtiCdTUs8Vi"><rect x="0" y="0" width="108" height="58.558" transform="matrix(1,0,0,1,46,124)"/></clipPath></defs></g></svg>